<mxfile host="app.diagrams.net" agent="Mozilla/5.0 (Windows NT 10.0; Win64; x64) AppleWebKit/537.36 (KHTML, like Gecko) Chrome/131.0.0.0 Safari/537.36 Edg/131.0.0.0" version="25.0.1">
  <diagram id="pNsqScxnHoQ3cGBAFDfz" name="Page-1">
    <mxGraphModel dx="2037" dy="1181" grid="1" gridSize="10" guides="1" tooltips="1" connect="1" arrows="1" fold="1" page="1" pageScale="1" pageWidth="850" pageHeight="1100" math="0" shadow="0">
      <root>
        <mxCell id="0" />
        <mxCell id="1" parent="0" />
        <mxCell id="F0-E9wcPbGtHSukRMR56-1" value="&lt;p style=&quot;margin:0px;margin-top:6px;text-align:center;&quot;&gt;&lt;b&gt;&amp;lt;&amp;lt;component&amp;gt;&amp;gt;&amp;nbsp;&lt;/b&gt;&lt;/p&gt;&lt;p style=&quot;margin:0px;margin-top:6px;text-align:center;&quot;&gt;&lt;b&gt;Printing&lt;/b&gt;&lt;/p&gt;&lt;hr size=&quot;1&quot; style=&quot;border-style:solid;&quot;&gt;&lt;p style=&quot;margin:0px;margin-left:8px;&quot;&gt;&lt;br&gt;&lt;/p&gt;" style="align=left;overflow=fill;html=1;dropTarget=0;whiteSpace=wrap;movable=0;resizable=0;rotatable=0;deletable=0;editable=0;locked=1;connectable=0;" vertex="1" parent="1">
          <mxGeometry x="290" y="65" width="320" height="185" as="geometry" />
        </mxCell>
        <mxCell id="F0-E9wcPbGtHSukRMR56-2" value="" style="shape=component;jettyWidth=8;jettyHeight=4;movable=0;resizable=0;rotatable=0;deletable=0;editable=0;locked=1;connectable=0;" vertex="1" parent="F0-E9wcPbGtHSukRMR56-1">
          <mxGeometry x="1" width="20" height="20" relative="1" as="geometry">
            <mxPoint x="-24" y="4" as="offset" />
          </mxGeometry>
        </mxCell>
        <mxCell id="F0-E9wcPbGtHSukRMR56-3" value="&lt;p style=&quot;margin:0px;margin-top:6px;text-align:center;&quot;&gt;&lt;b&gt;&amp;lt;&amp;lt;component&amp;gt;&amp;gt;&lt;/b&gt;&lt;/p&gt;&lt;p style=&quot;margin:0px;margin-top:6px;text-align:center;&quot;&gt;&lt;b&gt;System&lt;br&gt;&lt;/b&gt;&lt;/p&gt;&lt;hr size=&quot;1&quot; style=&quot;border-style:solid;&quot;&gt;&lt;p style=&quot;margin:0px;margin-left:8px;&quot;&gt;&lt;br&gt;&lt;/p&gt;" style="align=left;overflow=fill;html=1;dropTarget=0;whiteSpace=wrap;" vertex="1" parent="1">
          <mxGeometry x="740" y="65" width="380" height="405" as="geometry" />
        </mxCell>
        <mxCell id="F0-E9wcPbGtHSukRMR56-4" value="" style="shape=component;jettyWidth=8;jettyHeight=4;" vertex="1" parent="F0-E9wcPbGtHSukRMR56-3">
          <mxGeometry x="1" width="20" height="20" relative="1" as="geometry">
            <mxPoint x="-24" y="4" as="offset" />
          </mxGeometry>
        </mxCell>
        <mxCell id="F0-E9wcPbGtHSukRMR56-5" value="&lt;p style=&quot;margin:0px;margin-top:6px;text-align:center;&quot;&gt;&lt;b&gt;&amp;lt;&amp;lt;componentt&amp;gt;&amp;gt;&lt;/b&gt;&lt;/p&gt;&lt;p style=&quot;margin:0px;margin-top:6px;text-align:center;&quot;&gt;&lt;b&gt;Logging&lt;br&gt;&lt;/b&gt;&lt;/p&gt;&lt;hr size=&quot;1&quot; style=&quot;border-style:solid;&quot;&gt;&lt;p style=&quot;margin:0px;margin-left:8px;&quot;&gt;&lt;br&gt;&lt;br&gt;&lt;/p&gt;" style="align=left;overflow=fill;html=1;dropTarget=0;whiteSpace=wrap;movable=0;resizable=0;rotatable=0;deletable=0;editable=0;locked=1;connectable=0;" vertex="1" parent="1">
          <mxGeometry x="290" y="310" width="320" height="200" as="geometry" />
        </mxCell>
        <mxCell id="F0-E9wcPbGtHSukRMR56-6" value="" style="shape=component;jettyWidth=8;jettyHeight=4;movable=0;resizable=0;rotatable=0;deletable=0;editable=0;locked=1;connectable=0;" vertex="1" parent="F0-E9wcPbGtHSukRMR56-5">
          <mxGeometry x="1" width="20" height="20" relative="1" as="geometry">
            <mxPoint x="-24" y="4" as="offset" />
          </mxGeometry>
        </mxCell>
        <mxCell id="F0-E9wcPbGtHSukRMR56-7" value="&lt;p style=&quot;margin:0px;margin-top:6px;text-align:center;&quot;&gt;&lt;b&gt;&amp;lt;&amp;lt;component&amp;gt;&amp;gt;&lt;/b&gt;&lt;/p&gt;&lt;p style=&quot;margin:0px;margin-top:6px;text-align:center;&quot;&gt;&lt;b&gt;Database&lt;br&gt;&lt;/b&gt;&lt;/p&gt;&lt;hr size=&quot;1&quot; style=&quot;border-style:solid;&quot;&gt;" style="align=left;overflow=fill;html=1;dropTarget=0;whiteSpace=wrap;" vertex="1" parent="1">
          <mxGeometry x="1429" y="65" width="361" height="475" as="geometry" />
        </mxCell>
        <mxCell id="F0-E9wcPbGtHSukRMR56-8" value="" style="shape=component;jettyWidth=8;jettyHeight=4;" vertex="1" parent="F0-E9wcPbGtHSukRMR56-7">
          <mxGeometry x="1" width="20" height="20" relative="1" as="geometry">
            <mxPoint x="-24" y="4" as="offset" />
          </mxGeometry>
        </mxCell>
        <mxCell id="F0-E9wcPbGtHSukRMR56-9" value="&lt;div&gt;«component»&lt;/div&gt;&lt;div&gt;&lt;b&gt;GUI&lt;/b&gt;&lt;/div&gt;" style="html=1;dropTarget=0;whiteSpace=wrap;movable=0;resizable=0;rotatable=0;deletable=0;editable=0;locked=1;connectable=0;" vertex="1" parent="1">
          <mxGeometry x="370" y="140" width="180" height="90" as="geometry" />
        </mxCell>
        <mxCell id="F0-E9wcPbGtHSukRMR56-10" value="" style="shape=module;jettyWidth=8;jettyHeight=4;movable=0;resizable=0;rotatable=0;deletable=0;editable=0;locked=1;connectable=0;" vertex="1" parent="F0-E9wcPbGtHSukRMR56-9">
          <mxGeometry x="1" width="20" height="20" relative="1" as="geometry">
            <mxPoint x="-27" y="7" as="offset" />
          </mxGeometry>
        </mxCell>
        <mxCell id="F0-E9wcPbGtHSukRMR56-11" value="&lt;div&gt;«Annotation»&lt;/div&gt;&lt;div&gt;&lt;b&gt;GUI&lt;/b&gt;&lt;/div&gt;" style="html=1;dropTarget=0;whiteSpace=wrap;movable=0;resizable=0;rotatable=0;deletable=0;editable=0;locked=1;connectable=0;" vertex="1" parent="1">
          <mxGeometry x="370" y="381" width="180" height="90" as="geometry" />
        </mxCell>
        <mxCell id="F0-E9wcPbGtHSukRMR56-12" value="" style="shape=module;jettyWidth=8;jettyHeight=4;movable=0;resizable=0;rotatable=0;deletable=0;editable=0;locked=1;connectable=0;" vertex="1" parent="F0-E9wcPbGtHSukRMR56-11">
          <mxGeometry x="1" width="20" height="20" relative="1" as="geometry">
            <mxPoint x="-27" y="7" as="offset" />
          </mxGeometry>
        </mxCell>
        <mxCell id="F0-E9wcPbGtHSukRMR56-13" value="&lt;div&gt;&amp;lt;&amp;lt;component&amp;gt;&amp;gt;&lt;/div&gt;&lt;div&gt;&lt;b&gt;PrintController&lt;/b&gt;&lt;br&gt;&lt;/div&gt;" style="html=1;dropTarget=0;whiteSpace=wrap;" vertex="1" parent="1">
          <mxGeometry x="840" y="160" width="180" height="80" as="geometry" />
        </mxCell>
        <mxCell id="F0-E9wcPbGtHSukRMR56-14" value="" style="shape=module;jettyWidth=8;jettyHeight=4;" vertex="1" parent="F0-E9wcPbGtHSukRMR56-13">
          <mxGeometry x="1" width="20" height="20" relative="1" as="geometry">
            <mxPoint x="-27" y="7" as="offset" />
          </mxGeometry>
        </mxCell>
        <mxCell id="F0-E9wcPbGtHSukRMR56-15" value="&lt;div&gt;«component»&lt;/div&gt;&lt;div&gt;&lt;b&gt;File&lt;/b&gt;&lt;br&gt;&lt;/div&gt;" style="html=1;dropTarget=0;whiteSpace=wrap;" vertex="1" parent="1">
          <mxGeometry x="1630" y="260" width="120" height="70" as="geometry" />
        </mxCell>
        <mxCell id="F0-E9wcPbGtHSukRMR56-16" value="" style="shape=module;jettyWidth=8;jettyHeight=4;" vertex="1" parent="F0-E9wcPbGtHSukRMR56-15">
          <mxGeometry x="1" width="20" height="20" relative="1" as="geometry">
            <mxPoint x="-27" y="7" as="offset" />
          </mxGeometry>
        </mxCell>
        <mxCell id="F0-E9wcPbGtHSukRMR56-17" value="&lt;div&gt;«component»&lt;/div&gt;&lt;div&gt;&lt;b&gt;Printer&lt;/b&gt;&lt;br&gt;&lt;/div&gt;" style="html=1;dropTarget=0;whiteSpace=wrap;" vertex="1" parent="1">
          <mxGeometry x="1630" y="360" width="120" height="70" as="geometry" />
        </mxCell>
        <mxCell id="F0-E9wcPbGtHSukRMR56-18" value="" style="shape=module;jettyWidth=8;jettyHeight=4;" vertex="1" parent="F0-E9wcPbGtHSukRMR56-17">
          <mxGeometry x="1" width="20" height="20" relative="1" as="geometry">
            <mxPoint x="-27" y="7" as="offset" />
          </mxGeometry>
        </mxCell>
        <mxCell id="F0-E9wcPbGtHSukRMR56-19" value="&lt;div&gt;«component»&lt;/div&gt;&lt;div&gt;&lt;b&gt;User&lt;/b&gt;&lt;br&gt;&lt;/div&gt;" style="html=1;dropTarget=0;whiteSpace=wrap;" vertex="1" parent="1">
          <mxGeometry x="1480" y="140" width="120" height="70" as="geometry" />
        </mxCell>
        <mxCell id="F0-E9wcPbGtHSukRMR56-20" value="" style="shape=module;jettyWidth=8;jettyHeight=4;" vertex="1" parent="F0-E9wcPbGtHSukRMR56-19">
          <mxGeometry x="1" width="20" height="20" relative="1" as="geometry">
            <mxPoint x="-27" y="7" as="offset" />
          </mxGeometry>
        </mxCell>
        <mxCell id="F0-E9wcPbGtHSukRMR56-21" style="edgeStyle=orthogonalEdgeStyle;rounded=0;orthogonalLoop=1;jettySize=auto;html=1;exitX=1;exitY=0.5;exitDx=0;exitDy=0;" edge="1" parent="1" source="F0-E9wcPbGtHSukRMR56-22" target="F0-E9wcPbGtHSukRMR56-15">
          <mxGeometry relative="1" as="geometry" />
        </mxCell>
        <mxCell id="F0-E9wcPbGtHSukRMR56-22" value="&lt;div&gt;«component»&lt;/div&gt;&lt;div&gt;&lt;b&gt;PrintOrder&lt;/b&gt;&lt;/div&gt;" style="html=1;dropTarget=0;whiteSpace=wrap;" vertex="1" parent="1">
          <mxGeometry x="1480" y="260" width="110" height="70" as="geometry" />
        </mxCell>
        <mxCell id="F0-E9wcPbGtHSukRMR56-23" value="" style="shape=module;jettyWidth=8;jettyHeight=4;" vertex="1" parent="F0-E9wcPbGtHSukRMR56-22">
          <mxGeometry x="1" width="20" height="20" relative="1" as="geometry">
            <mxPoint x="-27" y="7" as="offset" />
          </mxGeometry>
        </mxCell>
        <mxCell id="F0-E9wcPbGtHSukRMR56-24" value="" style="ellipse;html=1;movable=0;resizable=0;rotatable=0;deletable=0;editable=0;locked=1;connectable=0;" vertex="1" parent="1">
          <mxGeometry x="140" y="150" width="30" height="30" as="geometry" />
        </mxCell>
        <mxCell id="F0-E9wcPbGtHSukRMR56-25" value="IPrint" style="text;html=1;align=center;verticalAlign=middle;resizable=0;points=[];autosize=1;strokeColor=none;fillColor=none;movable=0;rotatable=0;deletable=0;editable=0;locked=1;connectable=0;" vertex="1" parent="1">
          <mxGeometry x="130" y="180" width="50" height="30" as="geometry" />
        </mxCell>
        <mxCell id="F0-E9wcPbGtHSukRMR56-26" value="" style="endArrow=none;html=1;edgeStyle=orthogonalEdgeStyle;rounded=0;entryX=0;entryY=0.5;entryDx=0;entryDy=0;" edge="1" parent="1" target="F0-E9wcPbGtHSukRMR56-27">
          <mxGeometry relative="1" as="geometry">
            <mxPoint x="170" y="165" as="sourcePoint" />
            <mxPoint x="250" y="170" as="targetPoint" />
          </mxGeometry>
        </mxCell>
        <mxCell id="F0-E9wcPbGtHSukRMR56-27" value="" style="fontStyle=0;labelPosition=right;verticalLabelPosition=middle;align=left;verticalAlign=middle;spacingLeft=2;" vertex="1" parent="1">
          <mxGeometry x="280" y="150" width="30" height="30" as="geometry" />
        </mxCell>
        <mxCell id="F0-E9wcPbGtHSukRMR56-28" value="" style="endArrow=none;html=1;edgeStyle=orthogonalEdgeStyle;rounded=0;" edge="1" parent="1" source="F0-E9wcPbGtHSukRMR56-27">
          <mxGeometry relative="1" as="geometry">
            <mxPoint x="180" y="175" as="sourcePoint" />
            <mxPoint x="370" y="180" as="targetPoint" />
          </mxGeometry>
        </mxCell>
        <mxCell id="F0-E9wcPbGtHSukRMR56-29" value="" style="fontStyle=0;labelPosition=right;verticalLabelPosition=middle;align=left;verticalAlign=middle;spacingLeft=2;" vertex="1" parent="1">
          <mxGeometry x="600" y="150" width="30" height="30" as="geometry" />
        </mxCell>
        <mxCell id="F0-E9wcPbGtHSukRMR56-30" value="" style="endArrow=none;html=1;edgeStyle=orthogonalEdgeStyle;rounded=0;entryX=0;entryY=0.5;entryDx=0;entryDy=0;" edge="1" parent="1" target="F0-E9wcPbGtHSukRMR56-29">
          <mxGeometry relative="1" as="geometry">
            <mxPoint x="550" y="180" as="sourcePoint" />
            <mxPoint x="380" y="190" as="targetPoint" />
          </mxGeometry>
        </mxCell>
        <mxCell id="F0-E9wcPbGtHSukRMR56-31" value="" style="rounded=0;orthogonalLoop=1;jettySize=auto;html=1;endArrow=halfCircle;endFill=0;endSize=6;strokeWidth=1;sketch=0;" edge="1" parent="1" source="F0-E9wcPbGtHSukRMR56-29">
          <mxGeometry relative="1" as="geometry">
            <mxPoint x="740" y="235" as="sourcePoint" />
            <mxPoint x="690" y="166" as="targetPoint" />
          </mxGeometry>
        </mxCell>
        <mxCell id="F0-E9wcPbGtHSukRMR56-32" value="IPrintControl" style="edgeLabel;html=1;align=center;verticalAlign=middle;resizable=0;points=[];" vertex="1" connectable="0" parent="F0-E9wcPbGtHSukRMR56-31">
          <mxGeometry x="0.8596" y="-9" relative="1" as="geometry">
            <mxPoint x="4" y="10" as="offset" />
          </mxGeometry>
        </mxCell>
        <mxCell id="F0-E9wcPbGtHSukRMR56-33" value="" style="rounded=0;orthogonalLoop=1;jettySize=auto;html=1;endArrow=oval;endFill=0;sketch=0;sourcePerimeterSpacing=0;targetPerimeterSpacing=0;endSize=10;" edge="1" parent="1" source="F0-E9wcPbGtHSukRMR56-35">
          <mxGeometry relative="1" as="geometry">
            <mxPoint x="700" y="235" as="sourcePoint" />
            <mxPoint x="690" y="165" as="targetPoint" />
          </mxGeometry>
        </mxCell>
        <mxCell id="F0-E9wcPbGtHSukRMR56-34" value="" style="ellipse;whiteSpace=wrap;html=1;align=center;aspect=fixed;fillColor=none;strokeColor=none;resizable=0;perimeter=centerPerimeter;rotatable=0;allowArrows=0;points=[];outlineConnect=1;" vertex="1" parent="1">
          <mxGeometry x="715" y="230" width="10" height="10" as="geometry" />
        </mxCell>
        <mxCell id="F0-E9wcPbGtHSukRMR56-35" value="" style="fontStyle=0;labelPosition=right;verticalLabelPosition=middle;align=left;verticalAlign=middle;spacingLeft=2;" vertex="1" parent="1">
          <mxGeometry x="730" y="150" width="30" height="30" as="geometry" />
        </mxCell>
        <mxCell id="F0-E9wcPbGtHSukRMR56-36" value="" style="fontStyle=0;labelPosition=right;verticalLabelPosition=middle;align=left;verticalAlign=middle;spacingLeft=2;" vertex="1" parent="1">
          <mxGeometry x="1100" y="160" width="30" height="30" as="geometry" />
        </mxCell>
        <mxCell id="F0-E9wcPbGtHSukRMR56-37" value="" style="fontStyle=0;labelPosition=right;verticalLabelPosition=middle;align=left;verticalAlign=middle;spacingLeft=2;" vertex="1" parent="1">
          <mxGeometry x="1410" y="160" width="30" height="30" as="geometry" />
        </mxCell>
        <mxCell id="F0-E9wcPbGtHSukRMR56-38" value="" style="rounded=0;orthogonalLoop=1;jettySize=auto;html=1;endArrow=halfCircle;endFill=0;endSize=6;strokeWidth=1;sketch=0;" edge="1" parent="1" source="F0-E9wcPbGtHSukRMR56-36" target="F0-E9wcPbGtHSukRMR56-40">
          <mxGeometry relative="1" as="geometry">
            <mxPoint x="1310" y="185" as="sourcePoint" />
          </mxGeometry>
        </mxCell>
        <mxCell id="F0-E9wcPbGtHSukRMR56-39" value="" style="rounded=0;orthogonalLoop=1;jettySize=auto;html=1;endArrow=oval;endFill=0;sketch=0;sourcePerimeterSpacing=0;targetPerimeterSpacing=0;endSize=10;" edge="1" parent="1" source="F0-E9wcPbGtHSukRMR56-37" target="F0-E9wcPbGtHSukRMR56-40">
          <mxGeometry relative="1" as="geometry">
            <mxPoint x="1390" y="180" as="sourcePoint" />
          </mxGeometry>
        </mxCell>
        <mxCell id="F0-E9wcPbGtHSukRMR56-40" value="" style="ellipse;whiteSpace=wrap;html=1;align=center;aspect=fixed;fillColor=none;strokeColor=none;resizable=0;perimeter=centerPerimeter;rotatable=0;allowArrows=0;points=[];outlineConnect=1;" vertex="1" parent="1">
          <mxGeometry x="1290" y="170" width="10" height="10" as="geometry" />
        </mxCell>
        <mxCell id="F0-E9wcPbGtHSukRMR56-41" value="UserInformation" style="text;html=1;align=center;verticalAlign=middle;resizable=0;points=[];autosize=1;strokeColor=none;fillColor=none;" vertex="1" parent="1">
          <mxGeometry x="1241" y="180" width="110" height="30" as="geometry" />
        </mxCell>
        <mxCell id="F0-E9wcPbGtHSukRMR56-42" value="" style="endArrow=none;html=1;edgeStyle=orthogonalEdgeStyle;rounded=0;" edge="1" parent="1" source="F0-E9wcPbGtHSukRMR56-35" target="F0-E9wcPbGtHSukRMR56-13">
          <mxGeometry relative="1" as="geometry">
            <mxPoint x="690" y="230" as="sourcePoint" />
            <mxPoint x="680" y="210" as="targetPoint" />
          </mxGeometry>
        </mxCell>
        <mxCell id="F0-E9wcPbGtHSukRMR56-43" value="" style="endArrow=none;html=1;edgeStyle=orthogonalEdgeStyle;rounded=0;" edge="1" parent="1" source="F0-E9wcPbGtHSukRMR56-37" target="F0-E9wcPbGtHSukRMR56-19">
          <mxGeometry relative="1" as="geometry">
            <mxPoint x="1170" as="sourcePoint" />
            <mxPoint x="850" y="215" as="targetPoint" />
          </mxGeometry>
        </mxCell>
        <mxCell id="F0-E9wcPbGtHSukRMR56-44" value="" style="fontStyle=0;labelPosition=right;verticalLabelPosition=middle;align=left;verticalAlign=middle;spacingLeft=2;" vertex="1" parent="1">
          <mxGeometry x="1410" y="280" width="30" height="30" as="geometry" />
        </mxCell>
        <mxCell id="F0-E9wcPbGtHSukRMR56-45" value="" style="rounded=0;orthogonalLoop=1;jettySize=auto;html=1;endArrow=oval;endFill=0;sketch=0;sourcePerimeterSpacing=0;targetPerimeterSpacing=0;endSize=10;" edge="1" parent="1" source="F0-E9wcPbGtHSukRMR56-44">
          <mxGeometry relative="1" as="geometry">
            <mxPoint x="1420" y="185" as="sourcePoint" />
            <mxPoint x="1300" y="290" as="targetPoint" />
          </mxGeometry>
        </mxCell>
        <mxCell id="F0-E9wcPbGtHSukRMR56-46" value="" style="rounded=0;orthogonalLoop=1;jettySize=auto;html=1;endArrow=halfCircle;endFill=0;endSize=6;strokeWidth=1;sketch=0;" edge="1" parent="1" source="F0-E9wcPbGtHSukRMR56-36">
          <mxGeometry relative="1" as="geometry">
            <mxPoint x="1140" y="185" as="sourcePoint" />
            <mxPoint x="1300" y="290" as="targetPoint" />
            <Array as="points">
              <mxPoint x="1180" y="190" />
              <mxPoint x="1190" y="290" />
            </Array>
          </mxGeometry>
        </mxCell>
        <mxCell id="F0-E9wcPbGtHSukRMR56-47" value="Data" style="text;whiteSpace=wrap;html=1;" vertex="1" parent="1">
          <mxGeometry x="1280" y="300" width="40" height="40" as="geometry" />
        </mxCell>
        <mxCell id="F0-E9wcPbGtHSukRMR56-48" value="" style="endArrow=none;html=1;edgeStyle=orthogonalEdgeStyle;rounded=0;" edge="1" parent="1" source="F0-E9wcPbGtHSukRMR56-44" target="F0-E9wcPbGtHSukRMR56-22">
          <mxGeometry relative="1" as="geometry">
            <mxPoint x="1450" y="185" as="sourcePoint" />
            <mxPoint x="1490" y="185" as="targetPoint" />
          </mxGeometry>
        </mxCell>
        <mxCell id="F0-E9wcPbGtHSukRMR56-49" value="" style="endArrow=none;html=1;edgeStyle=orthogonalEdgeStyle;rounded=0;" edge="1" parent="1" source="F0-E9wcPbGtHSukRMR56-44" target="F0-E9wcPbGtHSukRMR56-17">
          <mxGeometry relative="1" as="geometry">
            <mxPoint x="1450" y="305" as="sourcePoint" />
            <mxPoint x="1490" y="305" as="targetPoint" />
            <Array as="points">
              <mxPoint x="1465" y="295" />
              <mxPoint x="1465" y="390" />
            </Array>
          </mxGeometry>
        </mxCell>
        <mxCell id="F0-E9wcPbGtHSukRMR56-50" value="«component»&lt;b&gt;BKPay&lt;/b&gt;&lt;br&gt;&lt;b&gt;&lt;/b&gt;" style="html=1;dropTarget=0;whiteSpace=wrap;" vertex="1" parent="1">
          <mxGeometry x="840" y="640" width="180" height="90" as="geometry" />
        </mxCell>
        <mxCell id="F0-E9wcPbGtHSukRMR56-51" value="" style="shape=module;jettyWidth=8;jettyHeight=4;" vertex="1" parent="F0-E9wcPbGtHSukRMR56-50">
          <mxGeometry x="1" width="20" height="20" relative="1" as="geometry">
            <mxPoint x="-27" y="7" as="offset" />
          </mxGeometry>
        </mxCell>
        <mxCell id="F0-E9wcPbGtHSukRMR56-52" value="&lt;div&gt;«component»&lt;b&gt;&lt;br&gt;&lt;/b&gt;&lt;/div&gt;&lt;div&gt;&lt;b&gt;Buy Paper&lt;/b&gt;&lt;/div&gt;" style="html=1;dropTarget=0;whiteSpace=wrap;" vertex="1" parent="1">
          <mxGeometry x="865" y="270" width="130" height="60" as="geometry" />
        </mxCell>
        <mxCell id="F0-E9wcPbGtHSukRMR56-53" value="" style="shape=module;jettyWidth=8;jettyHeight=4;" vertex="1" parent="F0-E9wcPbGtHSukRMR56-52">
          <mxGeometry x="1" width="20" height="20" relative="1" as="geometry">
            <mxPoint x="-27" y="7" as="offset" />
          </mxGeometry>
        </mxCell>
        <mxCell id="F0-E9wcPbGtHSukRMR56-54" value="" style="endArrow=none;html=1;edgeStyle=orthogonalEdgeStyle;rounded=0;" edge="1" parent="1" source="F0-E9wcPbGtHSukRMR56-35" target="F0-E9wcPbGtHSukRMR56-52">
          <mxGeometry relative="1" as="geometry">
            <mxPoint x="770" y="175" as="sourcePoint" />
            <mxPoint x="850" y="215" as="targetPoint" />
            <Array as="points">
              <mxPoint x="800" y="165" />
              <mxPoint x="800" y="300" />
            </Array>
          </mxGeometry>
        </mxCell>
        <mxCell id="F0-E9wcPbGtHSukRMR56-55" value="" style="fontStyle=0;labelPosition=right;verticalLabelPosition=middle;align=left;verticalAlign=middle;spacingLeft=2;" vertex="1" parent="1">
          <mxGeometry x="915" y="460" width="30" height="30" as="geometry" />
        </mxCell>
        <mxCell id="F0-E9wcPbGtHSukRMR56-56" value="" style="endArrow=none;html=1;edgeStyle=orthogonalEdgeStyle;rounded=0;" edge="1" parent="1" source="F0-E9wcPbGtHSukRMR56-55" target="F0-E9wcPbGtHSukRMR56-52">
          <mxGeometry relative="1" as="geometry">
            <mxPoint x="770" y="175" as="sourcePoint" />
            <mxPoint x="850" y="215" as="targetPoint" />
            <Array as="points">
              <mxPoint x="930" y="450" />
              <mxPoint x="1040" y="450" />
              <mxPoint x="1040" y="300" />
            </Array>
          </mxGeometry>
        </mxCell>
        <mxCell id="F0-E9wcPbGtHSukRMR56-57" value="" style="rounded=0;orthogonalLoop=1;jettySize=auto;html=1;endArrow=halfCircle;endFill=0;endSize=6;strokeWidth=1;sketch=0;" edge="1" parent="1" source="F0-E9wcPbGtHSukRMR56-55" target="F0-E9wcPbGtHSukRMR56-59">
          <mxGeometry relative="1" as="geometry">
            <mxPoint x="1080" y="545" as="sourcePoint" />
          </mxGeometry>
        </mxCell>
        <mxCell id="F0-E9wcPbGtHSukRMR56-58" value="" style="rounded=0;orthogonalLoop=1;jettySize=auto;html=1;endArrow=oval;endFill=0;sketch=0;sourcePerimeterSpacing=0;targetPerimeterSpacing=0;endSize=10;" edge="1" parent="1" source="F0-E9wcPbGtHSukRMR56-50" target="F0-E9wcPbGtHSukRMR56-59">
          <mxGeometry relative="1" as="geometry">
            <mxPoint x="930" y="640" as="sourcePoint" />
            <mxPoint x="930" y="560" as="targetPoint" />
          </mxGeometry>
        </mxCell>
        <mxCell id="F0-E9wcPbGtHSukRMR56-59" value="" style="ellipse;whiteSpace=wrap;html=1;align=center;aspect=fixed;fillColor=none;strokeColor=none;resizable=0;perimeter=centerPerimeter;rotatable=0;allowArrows=0;points=[];outlineConnect=1;" vertex="1" parent="1">
          <mxGeometry x="925" y="560" width="10" height="10" as="geometry" />
        </mxCell>
        <mxCell id="F0-E9wcPbGtHSukRMR56-60" value="API" style="text;html=1;align=center;verticalAlign=middle;resizable=0;points=[];autosize=1;strokeColor=none;fillColor=none;" vertex="1" parent="1">
          <mxGeometry x="930" y="548" width="40" height="30" as="geometry" />
        </mxCell>
        <mxCell id="F0-E9wcPbGtHSukRMR56-61" value="&lt;div&gt;«component»&lt;/div&gt;&lt;div&gt;&lt;b&gt;LogController&lt;/b&gt;&lt;/div&gt;" style="html=1;dropTarget=0;whiteSpace=wrap;" vertex="1" parent="1">
          <mxGeometry x="865" y="350" width="125" height="70" as="geometry" />
        </mxCell>
        <mxCell id="F0-E9wcPbGtHSukRMR56-62" value="" style="shape=module;jettyWidth=8;jettyHeight=4;" vertex="1" parent="F0-E9wcPbGtHSukRMR56-61">
          <mxGeometry x="1" width="20" height="20" relative="1" as="geometry">
            <mxPoint x="-27" y="7" as="offset" />
          </mxGeometry>
        </mxCell>
        <mxCell id="F0-E9wcPbGtHSukRMR56-63" value="" style="fontStyle=0;labelPosition=right;verticalLabelPosition=middle;align=left;verticalAlign=middle;spacingLeft=2;" vertex="1" parent="1">
          <mxGeometry x="725" y="370" width="30" height="30" as="geometry" />
        </mxCell>
        <mxCell id="F0-E9wcPbGtHSukRMR56-64" value="" style="fontStyle=0;labelPosition=right;verticalLabelPosition=middle;align=left;verticalAlign=middle;spacingLeft=2;" vertex="1" parent="1">
          <mxGeometry x="1110" y="380" width="30" height="30" as="geometry" />
        </mxCell>
        <mxCell id="F0-E9wcPbGtHSukRMR56-65" value="" style="endArrow=none;html=1;edgeStyle=orthogonalEdgeStyle;rounded=0;entryX=0;entryY=0.5;entryDx=0;entryDy=0;" edge="1" parent="1" source="F0-E9wcPbGtHSukRMR56-13" target="F0-E9wcPbGtHSukRMR56-36">
          <mxGeometry relative="1" as="geometry">
            <mxPoint x="770" y="175" as="sourcePoint" />
            <mxPoint x="850" y="215" as="targetPoint" />
          </mxGeometry>
        </mxCell>
        <mxCell id="F0-E9wcPbGtHSukRMR56-66" value="" style="endArrow=none;html=1;edgeStyle=orthogonalEdgeStyle;rounded=0;" edge="1" parent="1" source="F0-E9wcPbGtHSukRMR56-63" target="F0-E9wcPbGtHSukRMR56-61">
          <mxGeometry relative="1" as="geometry">
            <mxPoint x="770" y="175" as="sourcePoint" />
            <mxPoint x="850" y="210" as="targetPoint" />
          </mxGeometry>
        </mxCell>
        <mxCell id="F0-E9wcPbGtHSukRMR56-67" value="" style="rounded=0;orthogonalLoop=1;jettySize=auto;html=1;endArrow=halfCircle;endFill=0;endSize=6;strokeWidth=1;sketch=0;" edge="1" parent="1" source="F0-E9wcPbGtHSukRMR56-69" target="F0-E9wcPbGtHSukRMR56-71">
          <mxGeometry relative="1" as="geometry">
            <mxPoint x="630" y="340" as="sourcePoint" />
            <mxPoint x="670" y="370" as="targetPoint" />
          </mxGeometry>
        </mxCell>
        <mxCell id="F0-E9wcPbGtHSukRMR56-68" value="ILogControl" style="edgeLabel;html=1;align=center;verticalAlign=middle;resizable=0;points=[];" vertex="1" connectable="0" parent="F0-E9wcPbGtHSukRMR56-67">
          <mxGeometry x="0.8596" y="-9" relative="1" as="geometry">
            <mxPoint x="4" y="10" as="offset" />
          </mxGeometry>
        </mxCell>
        <mxCell id="F0-E9wcPbGtHSukRMR56-69" value="" style="fontStyle=0;labelPosition=right;verticalLabelPosition=middle;align=left;verticalAlign=middle;spacingLeft=2;" vertex="1" parent="1">
          <mxGeometry x="600" y="400" width="30" height="30" as="geometry" />
        </mxCell>
        <mxCell id="F0-E9wcPbGtHSukRMR56-70" value="" style="rounded=0;orthogonalLoop=1;jettySize=auto;html=1;endArrow=oval;endFill=0;sketch=0;sourcePerimeterSpacing=0;targetPerimeterSpacing=0;endSize=10;" edge="1" parent="1" source="F0-E9wcPbGtHSukRMR56-63" target="F0-E9wcPbGtHSukRMR56-71">
          <mxGeometry relative="1" as="geometry">
            <mxPoint x="730" y="335" as="sourcePoint" />
            <Array as="points">
              <mxPoint x="710" y="400" />
            </Array>
          </mxGeometry>
        </mxCell>
        <mxCell id="F0-E9wcPbGtHSukRMR56-71" value="" style="ellipse;whiteSpace=wrap;html=1;align=center;aspect=fixed;fillColor=none;strokeColor=none;resizable=0;perimeter=centerPerimeter;rotatable=0;allowArrows=0;points=[];outlineConnect=1;" vertex="1" parent="1">
          <mxGeometry x="670" y="410" width="10" height="10" as="geometry" />
        </mxCell>
        <mxCell id="F0-E9wcPbGtHSukRMR56-72" value="" style="ellipse;html=1;movable=1;resizable=1;rotatable=1;deletable=1;editable=1;locked=0;connectable=1;" vertex="1" parent="1">
          <mxGeometry x="150" y="400" width="30" height="30" as="geometry" />
        </mxCell>
        <mxCell id="F0-E9wcPbGtHSukRMR56-73" value="ILog" style="text;html=1;align=center;verticalAlign=middle;resizable=1;points=[];autosize=1;strokeColor=none;fillColor=none;movable=1;rotatable=1;deletable=1;editable=1;locked=0;connectable=1;" vertex="1" parent="1">
          <mxGeometry x="140" y="430" width="50" height="30" as="geometry" />
        </mxCell>
        <mxCell id="F0-E9wcPbGtHSukRMR56-74" value="" style="fontStyle=0;labelPosition=right;verticalLabelPosition=middle;align=left;verticalAlign=middle;spacingLeft=2;" vertex="1" parent="1">
          <mxGeometry x="280" y="400" width="30" height="30" as="geometry" />
        </mxCell>
        <mxCell id="F0-E9wcPbGtHSukRMR56-75" value="" style="endArrow=none;html=1;edgeStyle=orthogonalEdgeStyle;rounded=0;exitX=1;exitY=0.5;exitDx=0;exitDy=0;" edge="1" parent="1" source="F0-E9wcPbGtHSukRMR56-72" target="F0-E9wcPbGtHSukRMR56-74">
          <mxGeometry relative="1" as="geometry">
            <mxPoint x="180" y="175" as="sourcePoint" />
            <mxPoint x="290" y="175" as="targetPoint" />
          </mxGeometry>
        </mxCell>
        <mxCell id="F0-E9wcPbGtHSukRMR56-76" value="" style="endArrow=none;html=1;edgeStyle=orthogonalEdgeStyle;rounded=0;" edge="1" parent="1" source="F0-E9wcPbGtHSukRMR56-74">
          <mxGeometry relative="1" as="geometry">
            <mxPoint x="190" y="425" as="sourcePoint" />
            <mxPoint x="370" y="425" as="targetPoint" />
          </mxGeometry>
        </mxCell>
        <mxCell id="F0-E9wcPbGtHSukRMR56-77" value="" style="endArrow=none;html=1;edgeStyle=orthogonalEdgeStyle;rounded=0;" edge="1" parent="1" target="F0-E9wcPbGtHSukRMR56-69">
          <mxGeometry relative="1" as="geometry">
            <mxPoint x="550" y="430" as="sourcePoint" />
            <mxPoint x="610" y="175" as="targetPoint" />
          </mxGeometry>
        </mxCell>
        <mxCell id="F0-E9wcPbGtHSukRMR56-78" value="" style="endArrow=none;html=1;edgeStyle=orthogonalEdgeStyle;rounded=0;" edge="1" parent="1" source="F0-E9wcPbGtHSukRMR56-61" target="F0-E9wcPbGtHSukRMR56-64">
          <mxGeometry relative="1" as="geometry">
            <mxPoint x="1030" y="210" as="sourcePoint" />
            <mxPoint x="1110" y="185" as="targetPoint" />
          </mxGeometry>
        </mxCell>
        <mxCell id="F0-E9wcPbGtHSukRMR56-79" value="&lt;div&gt;«component»&lt;/div&gt;&lt;div&gt;&lt;b&gt;SPSO&lt;/b&gt;&lt;br&gt;&lt;/div&gt;" style="html=1;dropTarget=0;whiteSpace=wrap;" vertex="1" parent="1">
          <mxGeometry x="1610" y="450" width="120" height="70" as="geometry" />
        </mxCell>
        <mxCell id="F0-E9wcPbGtHSukRMR56-80" value="" style="shape=module;jettyWidth=8;jettyHeight=4;" vertex="1" parent="F0-E9wcPbGtHSukRMR56-79">
          <mxGeometry x="1" width="20" height="20" relative="1" as="geometry">
            <mxPoint x="-27" y="7" as="offset" />
          </mxGeometry>
        </mxCell>
        <mxCell id="F0-E9wcPbGtHSukRMR56-81" value="" style="fontStyle=0;labelPosition=right;verticalLabelPosition=middle;align=left;verticalAlign=middle;spacingLeft=2;" vertex="1" parent="1">
          <mxGeometry x="1410" y="480" width="30" height="30" as="geometry" />
        </mxCell>
        <mxCell id="F0-E9wcPbGtHSukRMR56-82" value="" style="fontStyle=0;labelPosition=right;verticalLabelPosition=middle;align=left;verticalAlign=middle;spacingLeft=2;" vertex="1" parent="1">
          <mxGeometry x="1410" y="420" width="30" height="30" as="geometry" />
        </mxCell>
        <mxCell id="F0-E9wcPbGtHSukRMR56-83" value="" style="rounded=0;orthogonalLoop=1;jettySize=auto;html=1;endArrow=halfCircle;endFill=0;endSize=6;strokeWidth=1;sketch=0;" edge="1" parent="1" source="F0-E9wcPbGtHSukRMR56-64" target="F0-E9wcPbGtHSukRMR56-85">
          <mxGeometry relative="1" as="geometry">
            <mxPoint x="1470" y="315" as="sourcePoint" />
          </mxGeometry>
        </mxCell>
        <mxCell id="F0-E9wcPbGtHSukRMR56-84" value="" style="rounded=0;orthogonalLoop=1;jettySize=auto;html=1;endArrow=oval;endFill=0;sketch=0;sourcePerimeterSpacing=0;targetPerimeterSpacing=0;endSize=10;" edge="1" parent="1" source="F0-E9wcPbGtHSukRMR56-37" target="F0-E9wcPbGtHSukRMR56-85">
          <mxGeometry relative="1" as="geometry">
            <mxPoint x="1430" y="315" as="sourcePoint" />
          </mxGeometry>
        </mxCell>
        <mxCell id="F0-E9wcPbGtHSukRMR56-85" value="" style="ellipse;whiteSpace=wrap;html=1;align=center;aspect=fixed;fillColor=none;strokeColor=none;resizable=0;perimeter=centerPerimeter;rotatable=0;allowArrows=0;points=[];outlineConnect=1;" vertex="1" parent="1">
          <mxGeometry x="1270" y="390" width="10" height="10" as="geometry" />
        </mxCell>
        <mxCell id="F0-E9wcPbGtHSukRMR56-86" value="UserInformation" style="text;whiteSpace=wrap;html=1;" vertex="1" parent="1">
          <mxGeometry x="1230" y="395" width="120" height="40" as="geometry" />
        </mxCell>
        <mxCell id="F0-E9wcPbGtHSukRMR56-87" value="" style="rounded=0;orthogonalLoop=1;jettySize=auto;html=1;endArrow=halfCircle;endFill=0;endSize=6;strokeWidth=1;sketch=0;" edge="1" parent="1" source="F0-E9wcPbGtHSukRMR56-64">
          <mxGeometry relative="1" as="geometry">
            <mxPoint x="1150" y="405" as="sourcePoint" />
            <mxPoint x="1280" y="500" as="targetPoint" />
          </mxGeometry>
        </mxCell>
        <mxCell id="F0-E9wcPbGtHSukRMR56-88" value="" style="rounded=0;orthogonalLoop=1;jettySize=auto;html=1;endArrow=halfCircle;endFill=0;endSize=6;strokeWidth=1;sketch=0;" edge="1" parent="1" source="F0-E9wcPbGtHSukRMR56-64">
          <mxGeometry relative="1" as="geometry">
            <mxPoint x="1150" y="415" as="sourcePoint" />
            <mxPoint x="1280" y="440" as="targetPoint" />
          </mxGeometry>
        </mxCell>
        <mxCell id="F0-E9wcPbGtHSukRMR56-89" value="" style="rounded=0;orthogonalLoop=1;jettySize=auto;html=1;endArrow=oval;endFill=0;sketch=0;sourcePerimeterSpacing=0;targetPerimeterSpacing=0;endSize=10;" edge="1" parent="1" source="F0-E9wcPbGtHSukRMR56-81">
          <mxGeometry relative="1" as="geometry">
            <mxPoint x="1425" y="200" as="sourcePoint" />
            <mxPoint x="1280" y="500" as="targetPoint" />
          </mxGeometry>
        </mxCell>
        <mxCell id="F0-E9wcPbGtHSukRMR56-90" value="" style="rounded=0;orthogonalLoop=1;jettySize=auto;html=1;endArrow=oval;endFill=0;sketch=0;sourcePerimeterSpacing=0;targetPerimeterSpacing=0;endSize=10;" edge="1" parent="1" source="F0-E9wcPbGtHSukRMR56-82">
          <mxGeometry relative="1" as="geometry">
            <mxPoint x="1420" y="506" as="sourcePoint" />
            <mxPoint x="1280" y="440" as="targetPoint" />
          </mxGeometry>
        </mxCell>
        <mxCell id="F0-E9wcPbGtHSukRMR56-91" value="PrinterData" style="text;html=1;align=center;verticalAlign=middle;resizable=0;points=[];autosize=1;strokeColor=none;fillColor=none;" vertex="1" parent="1">
          <mxGeometry x="1240" y="438" width="80" height="30" as="geometry" />
        </mxCell>
        <mxCell id="F0-E9wcPbGtHSukRMR56-92" value="SPSOInformation" style="text;html=1;align=center;verticalAlign=middle;resizable=0;points=[];autosize=1;strokeColor=none;fillColor=none;" vertex="1" parent="1">
          <mxGeometry x="1215" y="500" width="120" height="30" as="geometry" />
        </mxCell>
        <mxCell id="F0-E9wcPbGtHSukRMR56-93" value="" style="endArrow=none;html=1;edgeStyle=orthogonalEdgeStyle;rounded=0;" edge="1" parent="1" source="F0-E9wcPbGtHSukRMR56-82" target="F0-E9wcPbGtHSukRMR56-17">
          <mxGeometry relative="1" as="geometry">
            <mxPoint x="1450" y="305" as="sourcePoint" />
            <mxPoint x="1640" y="400" as="targetPoint" />
            <Array as="points">
              <mxPoint x="1475" y="435" />
              <mxPoint x="1475" y="400" />
            </Array>
          </mxGeometry>
        </mxCell>
        <mxCell id="F0-E9wcPbGtHSukRMR56-94" value="" style="endArrow=none;html=1;edgeStyle=orthogonalEdgeStyle;rounded=0;" edge="1" parent="1" source="F0-E9wcPbGtHSukRMR56-81" target="F0-E9wcPbGtHSukRMR56-79">
          <mxGeometry relative="1" as="geometry">
            <mxPoint x="1450" y="445" as="sourcePoint" />
            <mxPoint x="1640" y="410" as="targetPoint" />
            <Array as="points">
              <mxPoint x="1480" y="495" />
              <mxPoint x="1480" y="500" />
            </Array>
          </mxGeometry>
        </mxCell>
      </root>
    </mxGraphModel>
  </diagram>
</mxfile>
